<svg width="44" height="30" viewBox="0 0 44 30" fill="none" xmlns="http://www.w3.org/2000/svg">
<path fill-rule="evenodd" clip-rule="evenodd" d="M9.65845 10.9027C14.9691 10.9027 19.2741 15.1758 19.2741 20.4485C19.2741 25.7196 14.9691 29.9931 9.65845 29.9931C4.34797 29.9931 0.0429109 25.7196 0.0429109 20.4485L0 19.0842C0 8.54124 8.61007 -0.00622559 19.2312 -0.00622559V5.44739C15.562 5.44739 12.1124 6.86626 9.51792 9.44253C9.0185 9.9378 8.56269 10.4661 8.15163 11.0213C8.64259 10.9452 9.14578 10.9027 9.65845 10.9027ZM34.3844 10.9027C39.6949 10.9027 43.9999 15.1758 43.9999 20.4485C43.9999 25.7196 39.6949 29.9931 34.3844 29.9931C29.0738 29.9931 24.7687 25.7196 24.7687 20.4485L24.7258 19.0842C24.7258 8.54124 33.336 -0.00622559 43.957 -0.00622559V5.44739C40.2879 5.44739 36.8383 6.86626 34.2438 9.44253C33.7443 9.9378 33.2886 10.4661 32.8774 11.0213C33.3685 10.9452 33.8715 10.9027 34.3844 10.9027Z" fill="#18CFAB"/>
</svg>
